<?xml version="1.0"?>
<?xml-stylesheet type="text/css" href="svg.css"?>
<svg width="251.0" height="441.0" xmlns="http://www.w3.org/2000/svg" xmlns:xlink="http://www.w3.org/1999/xlink">
    <line x1="25.5" y1="20.5" x2="225.5" y2="20.5" class="grid"/>
    <line x1="25.5" y1="40.5" x2="225.5" y2="40.5" class="grid"/>
    <line x1="25.5" y1="60.5" x2="225.5" y2="60.5" class="grid"/>
    <line x1="25.5" y1="80.5" x2="225.5" y2="80.5" class="grid"/>
    <line x1="25.5" y1="100.5" x2="225.5" y2="100.5" class="grid"/>
    <line x1="25.5" y1="120.5" x2="225.5" y2="120.5" class="grid"/>
    <line x1="25.5" y1="140.5" x2="225.5" y2="140.5" class="grid"/>
    <line x1="25.5" y1="160.5" x2="225.5" y2="160.5" class="grid"/>
    <line x1="25.5" y1="180.5" x2="225.5" y2="180.5" class="grid"/>
    <line x1="25.5" y1="200.5" x2="225.5" y2="200.5" class="grid"/>
    <line x1="25.5" y1="220.5" x2="225.5" y2="220.5" class="grid"/>
    <line x1="25.5" y1="240.5" x2="225.5" y2="240.5" class="grid"/>
    <line x1="25.5" y1="260.5" x2="225.5" y2="260.5" class="grid"/>
    <line x1="25.5" y1="280.5" x2="225.5" y2="280.5" class="grid"/>
    <line x1="25.5" y1="300.5" x2="225.5" y2="300.5" class="grid"/>
    <line x1="25.5" y1="320.5" x2="225.5" y2="320.5" class="grid"/>
    <line x1="25.5" y1="340.5" x2="225.5" y2="340.5" class="grid"/>
    <line x1="25.5" y1="360.5" x2="225.5" y2="360.5" class="grid"/>
    <line x1="25.5" y1="380.5" x2="225.5" y2="380.5" class="grid"/>
    <line x1="25.5" y1="400.5" x2="225.5" y2="400.5" class="grid"/>
    <line x1="25.5" y1="420.5" x2="225.5" y2="420.5" class="grid"/>
    <line x1="25.5" y1="20.5" x2="25.5" y2="420.5" class="grid"/>
    <line x1="45.5" y1="20.5" x2="45.5" y2="420.5" class="grid"/>
    <line x1="65.5" y1="20.5" x2="65.5" y2="420.5" class="grid"/>
    <line x1="85.5" y1="20.5" x2="85.5" y2="420.5" class="grid"/>
    <line x1="105.5" y1="20.5" x2="105.5" y2="420.5" class="grid"/>
    <line x1="125.5" y1="20.5" x2="125.5" y2="420.5" class="grid"/>
    <line x1="145.5" y1="20.5" x2="145.5" y2="420.5" class="grid"/>
    <line x1="165.5" y1="20.5" x2="165.5" y2="420.5" class="grid"/>
    <line x1="185.5" y1="20.5" x2="185.5" y2="420.5" class="grid"/>
    <line x1="205.5" y1="20.5" x2="205.5" y2="420.5" class="grid"/>
    <line x1="225.5" y1="20.5" x2="225.5" y2="420.5" class="grid"/>
    <circle cx="115.5" cy="30.5" r="2.5" class="tetromino-center"/>
    <g style="font-size: 13px;">
        <text transform="translate(21.0 30.75)" class="axes" dy="0.25em" text-anchor="end">0</text>
        <text transform="translate(21.0 50.75)" class="axes" dy="0.25em" text-anchor="end">1</text>
        <text transform="translate(21.0 70.75)" class="axes" dy="0.25em" text-anchor="end">2</text>
        <text transform="translate(21.0 90.75)" class="axes" dy="0.25em" text-anchor="end">3</text>
        <text transform="translate(21.0 110.75)" class="axes" dy="0.25em" text-anchor="end">4</text>
        <text transform="translate(21.0 130.75)" class="axes" dy="0.25em" text-anchor="end">5</text>
        <text transform="translate(21.0 150.75)" class="axes" dy="0.25em" text-anchor="end">6</text>
        <text transform="translate(21.0 170.75)" class="axes" dy="0.25em" text-anchor="end">7</text>
        <text transform="translate(21.0 190.75)" class="axes" dy="0.25em" text-anchor="end">8</text>
        <text transform="translate(21.0 210.75)" class="axes" dy="0.25em" text-anchor="end">9</text>
        <text transform="translate(21.0 230.75)" class="axes" dy="0.25em" text-anchor="end">10</text>
        <text transform="translate(21.0 250.75)" class="axes" dy="0.25em" text-anchor="end">11</text>
        <text transform="translate(21.0 270.75)" class="axes" dy="0.25em" text-anchor="end">12</text>
        <text transform="translate(21.0 290.75)" class="axes" dy="0.25em" text-anchor="end">13</text>
        <text transform="translate(21.0 310.75)" class="axes" dy="0.25em" text-anchor="end">14</text>
        <text transform="translate(21.0 330.75)" class="axes" dy="0.25em" text-anchor="end">15</text>
        <text transform="translate(21.0 350.75)" class="axes" dy="0.25em" text-anchor="end">16</text>
        <text transform="translate(21.0 370.75)" class="axes" dy="0.25em" text-anchor="end">17</text>
        <text transform="translate(21.0 390.75)" class="axes" dy="0.25em" text-anchor="end">18</text>
        <text transform="translate(21.0 410.75)" class="axes" dy="0.25em" text-anchor="end">19</text>
        <text transform="translate(35.5 12.5)" class="axes" dy="0.25em" text-anchor="middle">0</text>
        <text transform="translate(55.5 12.5)" class="axes" dy="0.25em" text-anchor="middle">1</text>
        <text transform="translate(75.5 12.5)" class="axes" dy="0.25em" text-anchor="middle">2</text>
        <text transform="translate(95.5 12.5)" class="axes" dy="0.25em" text-anchor="middle">3</text>
        <text transform="translate(115.5 12.5)" class="axes" dy="0.25em" text-anchor="middle">4</text>
        <text transform="translate(135.5 12.5)" class="axes" dy="0.25em" text-anchor="middle">5</text>
        <text transform="translate(155.5 12.5)" class="axes" dy="0.25em" text-anchor="middle">6</text>
        <text transform="translate(175.5 12.5)" class="axes" dy="0.25em" text-anchor="middle">7</text>
        <text transform="translate(195.5 12.5)" class="axes" dy="0.25em" text-anchor="middle">8</text>
        <text transform="translate(215.5 12.5)" class="axes" dy="0.25em" text-anchor="middle">9</text>
    </g>
</svg>
