<?xml version="1.0"?>
<?xml-stylesheet type="text/css" href="svg.css"?>
<svg width="496.0" height="155.5" xmlns="http://www.w3.org/2000/svg" xmlns:xlink="http://www.w3.org/1999/xlink">
    <line x1="25.5" y1="40.5" x2="25.5" y2="140.5" class="grid"/>
    <line x1="25.5" y1="40.5" x2="125.5" y2="40.5" class="grid"/>
    <line x1="45.5" y1="40.5" x2="45.5" y2="140.5" class="grid"/>
    <line x1="25.5" y1="60.5" x2="125.5" y2="60.5" class="grid"/>
    <line x1="65.5" y1="40.5" x2="65.5" y2="140.5" class="grid"/>
    <line x1="25.5" y1="80.5" x2="125.5" y2="80.5" class="grid"/>
    <line x1="85.5" y1="40.5" x2="85.5" y2="140.5" class="grid"/>
    <line x1="25.5" y1="100.5" x2="125.5" y2="100.5" class="grid"/>
    <line x1="105.5" y1="40.5" x2="105.5" y2="140.5" class="grid"/>
    <line x1="25.5" y1="120.5" x2="125.5" y2="120.5" class="grid"/>
    <line x1="125.5" y1="40.5" x2="125.5" y2="140.5" class="grid"/>
    <line x1="25.5" y1="140.5" x2="125.5" y2="140.5" class="grid"/>
    <rect x="25.5" y="40.5" width="20.0" height="20.0" class="g"/>
    <rect x="25.5" y="60.5" width="20.0" height="20.0" class="g"/>
    <rect x="25.5" y="80.5" width="20.0" height="20.0" class="g"/>
    <rect x="25.5" y="100.5" width="20.0" height="20.0" class="g"/>
    <rect x="25.5" y="120.5" width="20.0" height="20.0" class="g"/>
    <rect x="65.5" y="80.5" width="20.0" height="20.0" class="t"/>
    <rect x="65.5" y="100.5" width="20.0" height="20.0" class="t"/>
    <rect x="45.5" y="80.5" width="20.0" height="20.0" class="t"/>
    <rect x="85.5" y="80.5" width="20.0" height="20.0" class="t"/>
    <circle cx="75.5" cy="90.5" r="2.5" class="tetromino-center"/>    <line x1="140.5" y1="40.5" x2="140.5" y2="140.5" class="grid"/>
    <line x1="140.5" y1="40.5" x2="240.5" y2="40.5" class="grid"/>
    <line x1="160.5" y1="40.5" x2="160.5" y2="140.5" class="grid"/>
    <line x1="140.5" y1="60.5" x2="240.5" y2="60.5" class="grid"/>
    <line x1="180.5" y1="40.5" x2="180.5" y2="140.5" class="grid"/>
    <line x1="140.5" y1="80.5" x2="240.5" y2="80.5" class="grid"/>
    <line x1="200.5" y1="40.5" x2="200.5" y2="140.5" class="grid"/>
    <line x1="140.5" y1="100.5" x2="240.5" y2="100.5" class="grid"/>
    <line x1="220.5" y1="40.5" x2="220.5" y2="140.5" class="grid"/>
    <line x1="140.5" y1="120.5" x2="240.5" y2="120.5" class="grid"/>
    <line x1="240.5" y1="40.5" x2="240.5" y2="140.5" class="grid"/>
    <line x1="140.5" y1="140.5" x2="240.5" y2="140.5" class="grid"/>
    <rect x="140.5" y="40.5" width="20.0" height="20.0" class="g"/>
    <rect x="140.5" y="60.5" width="20.0" height="20.0" class="g"/>
    <rect x="140.5" y="80.5" width="20.0" height="20.0" class="g"/>
    <rect x="140.5" y="100.5" width="20.0" height="20.0" class="g"/>
    <rect x="140.5" y="120.5" width="20.0" height="20.0" class="g"/>
    <rect x="180.5" y="80.5" width="20.0" height="20.0" class="t"/>
    <rect x="180.5" y="60.5" width="20.0" height="20.0" class="t"/>
    <rect x="200.5" y="80.5" width="20.0" height="20.0" class="t"/>
    <rect x="180.5" y="100.5" width="20.0" height="20.0" class="t"/>
    <circle cx="190.5" cy="90.5" r="2.5" class="tetromino-center"/>    <line x1="255.5" y1="40.5" x2="255.5" y2="140.5" class="grid"/>
    <line x1="255.5" y1="40.5" x2="355.5" y2="40.5" class="grid"/>
    <line x1="275.5" y1="40.5" x2="275.5" y2="140.5" class="grid"/>
    <line x1="255.5" y1="60.5" x2="355.5" y2="60.5" class="grid"/>
    <line x1="295.5" y1="40.5" x2="295.5" y2="140.5" class="grid"/>
    <line x1="255.5" y1="80.5" x2="355.5" y2="80.5" class="grid"/>
    <line x1="315.5" y1="40.5" x2="315.5" y2="140.5" class="grid"/>
    <line x1="255.5" y1="100.5" x2="355.5" y2="100.5" class="grid"/>
    <line x1="335.5" y1="40.5" x2="335.5" y2="140.5" class="grid"/>
    <line x1="255.5" y1="120.5" x2="355.5" y2="120.5" class="grid"/>
    <line x1="355.5" y1="40.5" x2="355.5" y2="140.5" class="grid"/>
    <line x1="255.5" y1="140.5" x2="355.5" y2="140.5" class="grid"/>
    <rect x="255.5" y="40.5" width="20.0" height="20.0" class="g"/>
    <rect x="255.5" y="60.5" width="20.0" height="20.0" class="g"/>
    <rect x="255.5" y="80.5" width="20.0" height="20.0" class="g"/>
    <rect x="255.5" y="100.5" width="20.0" height="20.0" class="g"/>
    <rect x="255.5" y="120.5" width="20.0" height="20.0" class="g"/>
    <rect x="275.5" y="80.5" width="20.0" height="20.0" class="t"/>
    <rect x="275.5" y="60.5" width="20.0" height="20.0" class="t"/>
    <rect x="295.5" y="80.5" width="20.0" height="20.0" class="t"/>
    <rect x="275.5" y="100.5" width="20.0" height="20.0" class="t"/>
    <circle cx="285.5" cy="90.5" r="2.5" class="tetromino-center"/>    <line x1="370.5" y1="40.5" x2="370.5" y2="140.5" class="grid"/>
    <line x1="370.5" y1="40.5" x2="470.5" y2="40.5" class="grid"/>
    <line x1="390.5" y1="40.5" x2="390.5" y2="140.5" class="grid"/>
    <line x1="370.5" y1="60.5" x2="470.5" y2="60.5" class="grid"/>
    <line x1="410.5" y1="40.5" x2="410.5" y2="140.5" class="grid"/>
    <line x1="370.5" y1="80.5" x2="470.5" y2="80.5" class="grid"/>
    <line x1="430.5" y1="40.5" x2="430.5" y2="140.5" class="grid"/>
    <line x1="370.5" y1="100.5" x2="470.5" y2="100.5" class="grid"/>
    <line x1="450.5" y1="40.5" x2="450.5" y2="140.5" class="grid"/>
    <line x1="370.5" y1="120.5" x2="470.5" y2="120.5" class="grid"/>
    <line x1="470.5" y1="40.5" x2="470.5" y2="140.5" class="grid"/>
    <line x1="370.5" y1="140.5" x2="470.5" y2="140.5" class="grid"/>
    <rect x="370.5" y="40.5" width="20.0" height="20.0" class="g"/>
    <rect x="370.5" y="60.5" width="20.0" height="20.0" class="g"/>
    <rect x="370.5" y="80.5" width="20.0" height="20.0" class="g"/>
    <rect x="370.5" y="100.5" width="20.0" height="20.0" class="g"/>
    <rect x="370.5" y="120.5" width="20.0" height="20.0" class="g"/>
    <rect x="410.5" y="60.5" width="20.0" height="20.0" class="t"/>
    <rect x="410.5" y="80.5" width="20.0" height="20.0" class="t"/>
    <rect x="390.5" y="60.5" width="20.0" height="20.0" class="t"/>
    <rect x="430.5" y="60.5" width="20.0" height="20.0" class="t"/>
    <circle cx="420.5" cy="70.5" r="2.5" class="tetromino-center"/>    <circle cx="420.5" cy="90.5" r="2.5" class="grid-center"/>    <g style="font-size: 26.0px;">
        <text x="190.5" y="21.0" dy="0.25em" class="keys" text-anchor="middle">&#x2B6F;</text>
        <text x="305.5" y="21.0" dy="0.25em" class="keys" text-anchor="middle">&#x1F814;</text>
        <text x="420.5" y="21.0" dy="0.25em" class="keys" text-anchor="middle">&#x2B6E;</text>
    </g>
</svg>
